# xmcd CD database file
#
# Track frame offsets:
#	150
#	18092
#	37982
#	54442
#
# Disc length: 939 seconds
#
# Revision: 1
# Processed by: cddbd v1.5.2PL0 Copyright (c) Steve Scherf et al.
# Submitted via: CDex 1.85
#
DISCID=2203a904
DTITLE=Mariah Carey - Never Too Far/Don't Stop (Funkin' 4 Jamaica)
DYEAR=2001
DGENRE=R&B
TTITLE0=Never Too Far (Edit)
TTITLE1=Never Too Far (Album Version)
TTITLE2=Don't Stop (Funkin' 4 Jamaica) (featuring Mystikal)
TTITLE3=Don't Stop (Funkin' 4 Jamaica) (Instrumental)
EXTD=YEAR: 2001
EXTT0=
EXTT1=
EXTT2=
EXTT3=
PLAYORDER=
